<svg xmlns="http://www.w3.org/2000/svg" width="44.174" height="44.174" viewBox="0 0 44.174 44.174">
  <path id="phone_" data-name="phone " d="M37.7,6.466a22.087,22.087,0,1,0,6.472,15.616A22.087,22.087,0,0,0,37.7,6.466Zm-4.253,24.3,0,0v-.007l-1.119,1.112a5.89,5.89,0,0,1-5.559,1.59,19.571,19.571,0,0,1-5.684-2.547A26.26,26.26,0,0,1,16.6,27.3a26.462,26.462,0,0,1-3.35-4.064,20.612,20.612,0,0,1-2.518-5.095,5.89,5.89,0,0,1,1.473-6.015l1.31-1.31a.935.935,0,0,1,1.322,0l0,0,4.138,4.138a.935.935,0,0,1,0,1.322l0,0-2.43,2.43a1.98,1.98,0,0,0-.206,2.577,28.414,28.414,0,0,0,2.908,3.394A28.24,28.24,0,0,0,23.081,27.9a2,2,0,0,0,2.547-.221l2.349-2.385a.935.935,0,0,1,1.322,0l0,0,4.145,4.152A.935.935,0,0,1,33.45,30.767Z" transform="translate(0 0)" fill="#fbbe41"/>
</svg>
